<svg width="33" height="33" viewBox="0 0 33 33" fill="none" xmlns="http://www.w3.org/2000/svg">
<path d="M16.0188 7.80733C11.4758 7.80733 7.80944 11.4738 7.80944 16.0169C7.80944 20.5599 11.4758 24.2264 16.0188 24.2264C20.5618 24.2264 24.2282 20.5599 24.2282 16.0169C24.2282 11.4738 20.5618 7.80733 16.0188 7.80733ZM16.0188 21.3525C13.0809 21.3525 10.6833 18.9549 10.6833 16.0169C10.6833 13.0789 13.0809 10.6813 16.0188 10.6813C18.9568 10.6813 21.3543 13.0789 21.3543 16.0169C21.3543 18.9549 18.9568 21.3525 16.0188 21.3525ZM24.5644 5.55781C23.5038 5.55781 22.6472 6.41439 22.6472 7.47511C22.6472 8.53582 23.5038 9.3924 24.5644 9.3924C25.6251 9.3924 26.4817 8.53982 26.4817 7.47511C26.482 7.22323 26.4326 6.97377 26.3364 6.74101C26.2402 6.50825 26.099 6.29677 25.9209 6.11867C25.7428 5.94057 25.5313 5.79935 25.2985 5.70311C25.0658 5.60687 24.8163 5.55749 24.5644 5.55781ZM32.0213 16.0169C32.0213 13.8074 32.0414 11.6179 31.9173 9.41241C31.7932 6.85068 31.2088 4.57715 29.3356 2.70388C27.4583 0.826613 25.1889 0.246221 22.6272 0.122137C20.4177 -0.00194678 18.2283 0.0180668 16.0228 0.0180668C13.8134 0.0180668 11.6239 -0.00194678 9.4185 0.122137C6.85681 0.246221 4.58332 0.830616 2.71009 2.70388C0.832854 4.58115 0.252473 6.85068 0.128391 9.41241C0.00430967 11.6219 0.0243229 13.8114 0.0243229 16.0169C0.0243229 18.2224 0.00430967 20.4158 0.128391 22.6213C0.252473 25.1831 0.836857 27.4566 2.71009 29.3299C4.58732 31.2071 6.85681 31.7875 9.4185 31.9116C11.6279 32.0357 13.8174 32.0157 16.0228 32.0157C18.2323 32.0157 20.4217 32.0357 22.6272 31.9116C25.1889 31.7875 27.4624 31.2031 29.3356 29.3299C31.2128 27.4526 31.7932 25.1831 31.9173 22.6213C32.0454 20.4158 32.0213 18.2264 32.0213 16.0169ZM28.499 25.4553C28.2068 26.1837 27.8546 26.7281 27.2902 27.2885C26.7259 27.8529 26.1855 28.2051 25.457 28.4973C23.3517 29.3339 18.3524 29.1457 16.0188 29.1457C13.6853 29.1457 8.68201 29.3339 6.57663 28.5013C5.84815 28.2091 5.30379 27.8569 4.74342 27.2925C4.17905 26.7281 3.82682 26.1877 3.53463 25.4593C2.70208 23.3498 2.89021 18.3505 2.89021 16.0169C2.89021 13.6833 2.70208 8.67992 3.53463 6.5745C3.82682 5.846 4.17905 5.30164 4.74342 4.74126C5.30779 4.18088 5.84815 3.82464 6.57663 3.53244C8.68201 2.69988 13.6853 2.88801 16.0188 2.88801C18.3524 2.88801 23.3557 2.69988 25.461 3.53244C26.1895 3.82464 26.7339 4.17688 27.2942 4.74126C27.8586 5.30564 28.2108 5.846 28.503 6.5745C29.3356 8.67992 29.1475 13.6833 29.1475 16.0169C29.1475 18.3505 29.3356 23.3498 28.499 25.4553Z" fill="#22D4FD"/>
</svg>
